<svg width="20" height="14" viewBox="0 0 20 14" fill="none" xmlns="http://www.w3.org/2000/svg">
<path d="M8.62495 13.875C8.20099 13.8768 7.78983 13.7299 7.46307 13.4598L1.21736 8.08898C1.08226 7.97148 0.998031 7.80608 0.982381 7.62768C0.966741 7.44928 1.02091 7.27168 1.13349 7.13248L2.58366 5.35732C2.64183 5.28602 2.71372 5.22712 2.79508 5.18412C2.87644 5.14111 2.9656 5.11488 3.05728 5.10697C3.14897 5.09907 3.2413 5.10964 3.32882 5.13808C3.41634 5.16652 3.49726 5.21224 3.56678 5.27253L8.44162 9.50478L16.2791 0.901414C16.401 0.767264 16.571 0.686704 16.7521 0.677264C16.9331 0.667824 17.1105 0.730264 17.2457 0.850994L18.9544 2.38457C19.0218 2.44505 19.0767 2.51826 19.1157 2.6C19.1548 2.68173 19.1773 2.77038 19.182 2.86084C19.1867 2.95131 19.1734 3.0418 19.143 3.12714C19.1126 3.21247 19.0657 3.29095 19.0048 3.35807L9.9908 13.2668C9.8179 13.4576 9.6072 13.6102 9.372 13.715C9.1368 13.8197 8.88239 13.8742 8.62495 13.875Z" fill="url(#paint0_linear_1_39)"/>
<defs>
<linearGradient id="paint0_linear_1_39" x1="10.0802" y1="0.676824" x2="10.0802" y2="13.875" gradientUnits="userSpaceOnUse">
<stop offset="0.278" stop-color="#65E04D"/>
<stop offset="0.458" stop-color="#5CD740"/>
<stop offset="0.79" stop-color="#44C11D"/>
<stop offset="1" stop-color="#33B004"/>
</linearGradient>
</defs>
</svg>
